<svg id="Layer_1" enable-background="new 0 0 512.026 512.026" height="512" viewBox="0 0 512.026 512.026" width="512" xmlns="http://www.w3.org/2000/svg"><g><path d="m497 399.775h-6s-.145-272.287-.395-273.373l4.314-4.314c22.809-22.809 22.809-59.922 0-82.731-22.809-22.81-59.923-22.81-82.731 0l-9.918 9.918h-294.507c-8.284 0-15 6.716-15 15v50.5h-56.763c-8.284 0-15 6.716-15 15v270h-6c-8.284 0-15 6.716-15 15 0 41.355 33.645 75 75 75h362c41.355 0 75-33.645 75-75 0-8.284-6.716-15-15-15zm-77.763 0v-201.75c0-.082-.011-.162-.012-.244l41.775-41.773v243.768h-41.763zm-63.117-181.314-40.305-40.305 95.312-95.312 40.305 40.305zm-29.083 13.343-33.312 8.748 8.748-33.312zm146.669-171.233c11.112 11.112 11.112 29.193 0 40.305l-.914.913-40.305-40.305.913-.913c11.112-11.112 29.193-11.114 40.306 0zm-101.436 18.704s-88.274 88.274-88.287 88.288c-1.872 1.847-3.221 4.24-3.888 6.782l-21.909 83.428c-1.354 5.158.131 10.646 3.901 14.417 3.773 3.786 9.318 5.253 14.417 3.901l83.428-21.909c2.558-.671 4.922-2.037 6.796-3.901l22.511-22.511v172.005h-266.476v-320.5zm-321.27 65.5h41.763v255h-41.763zm386 315h-362c-19.556 0-36.238-12.539-42.429-30h446.859c-6.191 17.462-22.873 30-42.43 30z"/><path d="m167.388 149.275h83c19.902-.793 19.887-29.215 0-30h-83c-19.902.793-19.887 29.215 0 30z"/><path d="m167.387 209.275h52.189c19.902-.793 19.887-29.215 0-30h-52.189c-19.902.793-19.887 29.215 0 30z"/><path d="m167.387 269.275h39.656c19.902-.793 19.887-29.215 0-30h-39.656c-19.902.793-19.887 29.215 0 30z"/><path d="m167.387 328.775h39.656c19.902-.793 19.887-29.215 0-30h-39.656c-19.902.793-19.887 29.215 0 30z"/></g></svg>