<?xml version="1.0" ?><!DOCTYPE svg  PUBLIC '-//W3C//DTD SVG 1.1//EN'  'http://www.w3.org/Graphics/SVG/1.1/DTD/svg11.dtd'><svg height="100%" style="fill-rule:evenodd;clip-rule:evenodd;stroke-linejoin:round;stroke-miterlimit:2;" version="1.1" viewBox="0 0 32 32" width="100%" xml:space="preserve" xmlns="http://www.w3.org/2000/svg" xmlns:serif="http://www.serif.com/" xmlns:xlink="http://www.w3.org/1999/xlink"><path d="M26.5,11.444c-0,-0.907 -0.492,-1.744 -1.286,-2.185c-1.938,-1.077 -6.107,-3.393 -8,-4.444c-0.755,-0.42 -1.673,-0.42 -2.428,-0c-1.893,1.051 -6.062,3.367 -8,4.444c-0.794,0.441 -1.286,1.278 -1.286,2.185c0,2.819 0,9.981 0,13.49c0,1.381 1.119,2.5 2.5,2.5c1.963,0 4.665,0 4.665,0c0.277,0 0.5,-0.224 0.5,-0.5l0,-3.555c0,-0.398 0.158,-0.78 0.44,-1.061c0.281,-0.281 0.663,-0.439 1.06,-0.439l2.67,-0c0.397,-0 0.779,0.158 1.06,0.439c0.282,0.281 0.44,0.663 0.44,1.061c-0,1.592 -0,3.555 -0,3.555c-0,0.276 0.223,0.5 0.5,0.5l4.665,0c1.381,0 2.5,-1.119 2.5,-2.5l0,-13.49Zm-1,0c-0,-0.544 -0.295,-1.046 -0.772,-1.311c-1.938,-1.077 -6.106,-3.392 -8,-4.444c-0.453,-0.252 -1.003,-0.252 -1.456,-0c-1.894,1.052 -6.062,3.367 -8,4.444c-0.477,0.265 -0.772,0.767 -0.772,1.311c0,2.819 0,9.981 0,13.49c0,0.829 0.672,1.5 1.5,1.5l4.165,0l0,-3.055c0,-0.663 0.264,-1.299 0.733,-1.768c0.469,-0.469 1.104,-0.732 1.767,-0.732l2.67,-0c0.663,-0 1.298,0.263 1.767,0.732c0.469,0.469 0.733,1.105 0.733,1.768l-0,3.055l4.165,0c0.828,0 1.5,-0.671 1.5,-1.5l0,-13.49Z"/></svg>